<svg width="18" height="10" viewBox="0 0 18 10" fill="none" xmlns="http://www.w3.org/2000/svg">
<path fill-rule="evenodd" clip-rule="evenodd" d="M11.4318 0.359841C11.7853 -0.0644362 12.4159 -0.12176 12.8402 0.231804L17.6402 4.2318C17.8682 4.4218 18 4.70325 18 5.00003C18 5.29681 17.8682 5.57825 17.6402 5.76825L12.8402 9.76825C12.4159 10.1218 11.7853 10.0645 11.4318 9.64021C11.0782 9.21593 11.1355 8.58537 11.5598 8.2318L14.238 6.00003H1C0.447715 6.00003 0 5.55231 0 5.00003C0 4.44774 0.447715 4.00003 1 4.00003H14.238L11.5598 1.76825C11.1355 1.41468 11.0782 0.784118 11.4318 0.359841Z" fill="#332200"/>
</svg>
